<?xml version="1.0" encoding="utf-8"?>
<!-- Generator: Adobe Illustrator 23.0.6, SVG Export Plug-In . SVG Version: 6.00 Build 0)  -->
<svg version="1.1" id="圖層_1" xmlns="http://www.w3.org/2000/svg" xmlns:xlink="http://www.w3.org/1999/xlink" x="0px" y="0px"
	 viewBox="0 0 1640 1640" style="enable-background:new 0 0 1640 1640;" xml:space="preserve">
<style type="text/css">
	.st0{fill:none;stroke:#838181;stroke-width:15.955;stroke-miterlimit:10;}
	.st1{fill:#838181;}
	.st2{fill:#FFFFFF;}
	.st3{fill-rule:evenodd;clip-rule:evenodd;fill:#838181;}
	.st4{fill:none;stroke:#838181;stroke-width:22;stroke-linecap:round;stroke-miterlimit:10;stroke-dasharray:80,80;}
	.st5{fill-rule:evenodd;clip-rule:evenodd;fill:#FFFFFF;stroke:#838181;stroke-width:22;stroke-miterlimit:10;}
	.st6{fill:#FFFFFF;stroke:#838181;stroke-width:18;stroke-miterlimit:10;}
	.st7{fill:none;stroke:#838181;stroke-width:18;stroke-miterlimit:10;}
</style>
<path class="st0" d="M782.4,922.7c0,0,35.3-44.5,76.2,0"/>
<circle class="st1" cx="708.4" cy="734.3" r="30.8"/>
<path class="st2" d="M904.2,715.1c0,2.6-2.1,4.7-4.7,4.7c-2.6,0-4.7-2.1-4.7-4.7c0-2.6,2.1-4.7,4.7-4.7
	C902,710.4,904.2,712.5,904.2,715.1z"/>
<path class="st1" d="M964.5,734.3c0,17-13.8,30.8-30.8,30.8c-17,0-30.8-13.8-30.8-30.8c0-17,13.8-30.8,30.8-30.8
	C950.7,703.5,964.5,717.3,964.5,734.3z"/>
<path class="st3" d="M821.2,810.5c0,0,9.2-16.5,26.3-20.2c0,0,21.6-3.3,32.1,6.6c0,0,26.6,21.3,29.3,22.9c2.6,1.6,2.6,1.6,2.6,1.6
	s10.6,8,20.1,3c9.5-5,16.9-14.5,16.9-14.5s5.4-3.5,4.5,5.3c-0.9,8.8-0.2,1.2-0.2,1.2s1,14.9-21.9,39.6c0,0-25.2,25.7-69,12.9
	c0,0-33.3-8.8-41-29.6c0,0-2,14-34.6,28.1c0,0-36.3,17.9-75-10.2c0,0-23.1-25.1-22.2-41.4c0,0-1.7-5.9,1.1-6.6c0,0,4.6,2.9,9.8,8.6
	c0,0,16.7,13.8,26.4,6c9.8-7.9,34.1-26.5,34.1-26.5s14-8.2,20.3-7.4c6.2,0.8,13.7-1.7,22,3.8C811.1,799.2,816.8,804.5,821.2,810.5z"
	/>
<path class="st4" d="M1221.1,1134.8H413.2c-49.7,0-90-40.3-90-90V560c0-49.7,40.3-90,90-90h807.9c49.7,0,90,40.3,90,90v484.7
	C1311.1,1094.5,1270.8,1134.8,1221.1,1134.8z"/>
<circle class="st5" cx="1307.3" cy="1012.2" r="166.6"/>
<path class="st1" d="M1370,1006.1h-56.7v-56.7c0-3.4-2.7-6.1-6.1-6.1l0,0c-3.4,0-6.1,2.7-6.1,6.1v56.7h-56.7c-3.4,0-6.1,2.7-6.1,6.1
	v0c0,3.4,2.7,6.1,6.1,6.1h56.7v56.7c0,3.4,2.7,6.1,6.1,6.1l0,0c3.4,0,6.1-2.7,6.1-6.1v-56.7h56.7c3.4,0,6.1-2.7,6.1-6.1v0
	C1376.1,1008.8,1373.4,1006.1,1370,1006.1z"/>
<path class="st6" d="M1159.6,852.3c39.1,48.9,59.9,76.4,89.5,92.6c20.1,11,34.8-0.3,27.8-28.5c-4.1-16.5-27.5-57.5-58.5-105.5"/>
<path class="st7" d="M485.6,852.3c-39.1,48.9-59.9,76.4-89.5,92.6c-20.1,11-34.8-0.3-27.8-28.5c4.1-16.5,27.5-57.5,58.5-105.5"/>
</svg>
